<svg width="215" height="16" viewBox="0 0 215 16" fill="none" xmlns="http://www.w3.org/2000/svg">
<g clip-path="url(#clip0_1193_334)">
<path d="M2.1393 3.30403C2.1393 7.44612 9.96414 5.96267 9.96414 11.4148C9.96414 14.189 7.53574 16 4.7508 16C2.76568 16 1.06002 15.3835 0.134911 14.5551L0 10.7213H0.22164C0.732374 13.6496 2.49585 15.6629 4.79898 15.6629C6.88046 15.6629 8.13321 14.2854 8.13321 12.4455C8.13321 7.56171 0.308368 9.4401 0.308368 4.22878C0.308368 1.88802 2.25494 0 5.21335 0C6.76482 0 8.08502 0.529801 9.26068 1.28116V4.51776H9.05831C8.61503 1.92655 7.11174 0.308248 5.12662 0.308248C3.1415 0.308248 2.1393 1.705 2.1393 3.30403Z" fill="#1D1D1B"/>
<path d="M24.5056 0.221436L24.8333 4.85479H24.6309C23.6191 1.55076 22.8867 0.626011 20.7185 0.626011H19.1092V14.0252C19.1092 15.2871 19.7259 15.4219 21.2485 15.5568V15.7783H14.8595V15.5568C16.3821 15.4219 17.0277 15.2871 17.0277 14.0252V0.616378H15.3895C13.2213 0.616378 12.4986 1.55076 11.4771 4.84516H11.2747L11.6216 0.221436H24.5056Z" fill="#1D1D1B"/>
<path d="M28.0326 15.7785H23.5709V15.5569C24.4092 15.4702 25.0549 15.3354 25.3151 14.6033L30.2393 1.4642L29.69 0.0192871H31.8583L37.5631 14.7381C37.804 15.3354 38.4496 15.5376 39.1724 15.5569V15.7785H33.2941V15.5569C34.7299 15.5087 35.1925 15.2294 35.1925 14.6225C35.1925 14.3817 35.1058 14.0638 34.9708 13.7171L33.3808 9.57498H27.7242L26.2016 13.6978C26.0667 14.0542 25.9993 14.3432 25.9993 14.5647C25.9993 15.2294 26.5485 15.5184 28.0326 15.5665V15.7881V15.7785ZM30.4802 2.0807L27.8495 9.1704H33.217L30.4802 2.0807Z" fill="#1D1D1B"/>
<path d="M52.2298 15.9999L41.5333 2.45623V13.9385C41.5333 15.2678 42.0826 15.4412 44.1448 15.5568V15.7783H38.8833V15.5568C40.5215 15.4219 41.0515 15.2678 41.0515 13.9385V1.859C40.2998 0.992056 39.6349 0.48152 38.8447 0.442989V0.221436H42.4873L51.9407 12.5225V2.06129C51.9407 0.731971 51.3914 0.558582 49.3292 0.442989V0.221436H54.5908V0.442989C52.9526 0.577847 52.4226 0.731971 52.4226 2.06129V15.9999H52.2202H52.2298Z" fill="#1D1D1B"/>
<path d="M68.7275 0.221547L69.0551 4.8549H68.8528C67.8409 1.55087 67.1086 0.626122 64.9404 0.626122H63.3311V14.0253C63.3311 15.2872 63.9478 15.422 65.4704 15.5569V15.7784H59.0814V15.5569C60.6039 15.422 61.2496 15.2872 61.2496 14.0253V0.61649H59.6114C57.4432 0.61649 56.7204 1.55087 55.6989 4.84527H55.4966L55.8242 0.211914H68.7082L68.7275 0.221547Z" fill="#1D1D1B"/>
<path d="M83.3558 7.68693C83.3558 12.5418 80.2432 16 76.3308 16C71.9076 16 69.46 12.3203 69.46 8.31306C69.46 3.45816 72.5726 0 76.485 0C80.9081 0 83.3558 3.67971 83.3558 7.68693ZM71.7342 7.99518C71.7342 11.6267 73.2375 15.6821 76.5042 15.6821C79.4626 15.6821 81.0816 12.224 81.0816 7.99518C81.0816 4.36364 79.5783 0.308248 76.3115 0.308248C73.3531 0.308248 71.7342 3.76641 71.7342 7.99518Z" fill="#1D1D1B"/>
<path d="M96.8083 15.9999L86.1118 2.45623V13.9385C86.1118 15.2678 86.6611 15.4412 88.7233 15.5568V15.7783H83.4618V15.5568C85.1 15.4219 85.63 15.2678 85.63 13.9385V1.859C84.8783 0.992056 84.2134 0.48152 83.4232 0.442989V0.221436H87.0658L96.5192 12.5225V2.06129C96.5192 0.731971 95.9699 0.558582 93.9077 0.442989V0.221436H99.1693V0.442989C97.5311 0.577847 97.0011 0.731971 97.0011 2.06129V15.9999H96.7987H96.8083Z" fill="#1D1D1B"/>
<path d="M117.98 3.30403C117.98 7.44612 125.804 5.96267 125.804 11.4148C125.804 14.189 123.376 16 120.591 16C118.606 16 116.9 15.3835 115.975 14.5551L115.84 10.7213H116.062C116.573 13.6496 118.336 15.6629 120.639 15.6629C122.721 15.6629 123.974 14.2854 123.974 12.4455C123.974 7.55208 116.149 9.43046 116.149 4.21914C116.149 1.88802 118.086 0 121.044 0C122.586 0 123.916 0.529801 125.091 1.28116V4.51776H124.889C124.446 1.92655 122.942 0.308248 120.957 0.308248C118.972 0.308248 117.97 1.705 117.97 3.30403" fill="#1D1D1B"/>
<path d="M140.336 0.221547L140.664 4.8549H140.462C139.45 1.55087 138.717 0.626122 136.549 0.626122H134.94V14.0253C134.94 15.2872 135.557 15.422 137.079 15.5569V15.7784H130.69V15.5569C132.213 15.422 132.858 15.2872 132.858 14.0253V0.61649H131.22C129.052 0.61649 128.329 1.55087 127.308 4.84527H127.105L127.433 0.211914H140.317L140.336 0.221547Z" fill="#1D1D1B"/>
<path d="M143.873 15.7785H139.411V15.5569C140.25 15.4702 140.895 15.3354 141.155 14.6033L146.08 1.4642L145.53 0.0192871H147.699L153.403 14.7381C153.644 15.3354 154.29 15.5376 155.013 15.5569V15.7785H149.134V15.5569C150.57 15.5087 151.033 15.2294 151.033 14.6225C151.033 14.3817 150.946 14.0638 150.811 13.7171L149.221 9.57498H143.565L142.042 13.6978C141.907 14.0542 141.84 14.3432 141.84 14.5647C141.84 15.2294 142.389 15.5184 143.873 15.5665V15.7881V15.7785ZM146.33 2.0807L143.699 9.1704H149.067L146.33 2.0807Z" fill="#1D1D1B"/>
<path d="M168.061 15.9999L157.364 2.45623V13.9385C157.364 15.2678 157.913 15.4412 159.976 15.5568V15.7783H154.714V15.5568C156.352 15.4219 156.882 15.2678 156.882 13.9385V1.859C156.131 0.992056 155.466 0.48152 154.676 0.442989V0.221436H158.318L167.772 12.5225V2.06129C167.772 0.731971 167.222 0.558582 165.16 0.442989V0.221436H170.422V0.442989C168.783 0.577847 168.253 0.731971 168.253 2.06129V15.9999H168.051H168.061Z" fill="#1D1D1B"/>
<path d="M184.558 0.221547L184.886 4.8549H184.684C183.672 1.55087 182.939 0.626122 180.771 0.626122H179.162V14.0253C179.162 15.2872 179.779 15.422 181.301 15.5569V15.7784H174.912V15.5569C176.435 15.422 177.08 15.2872 177.08 14.0253V0.61649H175.442C173.274 0.61649 172.551 1.55087 171.53 4.84527H171.327L171.655 0.211914H184.539L184.558 0.221547Z" fill="#1D1D1B"/>
<path d="M199.186 7.68693C199.186 12.5418 196.074 16 192.161 16C187.738 16 185.291 12.3203 185.291 8.31306C185.291 3.45816 188.403 0 192.316 0C196.739 0 199.186 3.67971 199.186 7.68693ZM187.565 7.99518C187.565 11.6267 189.068 15.6821 192.335 15.6821C195.293 15.6821 196.912 12.224 196.912 7.99518C196.912 4.36364 195.409 0.308248 192.142 0.308248C189.184 0.308248 187.565 3.76641 187.565 7.99518Z" fill="#1D1D1B"/>
<path d="M212.639 15.9999L201.942 2.45623V13.9385C201.942 15.2678 202.492 15.4412 204.554 15.5568V15.7783H199.292V15.5568C200.931 15.4219 201.461 15.2678 201.461 13.9385V1.859C200.709 0.992056 200.044 0.48152 199.254 0.442989V0.221436H202.897L212.35 12.5225V2.06129C212.35 0.731971 211.801 0.558582 209.738 0.442989V0.221436H215V0.442989C213.362 0.577847 212.832 0.731971 212.832 2.06129V15.9999H212.629H212.639Z" fill="#1D1D1B"/>
<path d="M108.767 10.8945C108.102 11.5688 107.216 12.0023 106.079 12.0023C104.566 12.0023 103.091 11.1065 103.091 9.52669C103.091 8.28406 104.026 7.48455 105.173 7.01254L105.057 6.87768C104.672 6.45384 104.19 5.79881 104.19 4.89334C104.19 3.68924 105.202 2.62964 106.57 2.62964C107.938 2.62964 108.806 3.48695 108.806 4.45986C108.806 5.65432 107.755 6.22266 106.416 6.70429L109.316 9.84457C109.663 9.24734 109.856 8.53452 109.856 7.79279C109.856 7.05107 109.278 6.90658 108.43 6.89695V6.75246H111.514V6.89695C110.685 6.90658 110.299 7.07034 110.184 7.83132C110.068 8.61158 109.818 9.3533 109.461 9.98906L109.663 10.2202C110.637 11.2702 111.292 11.6748 111.928 11.7422V11.8771H109.914C109.586 11.7037 109.336 11.4918 108.777 10.9042M108.613 10.7211C108.468 10.5767 108.324 10.4129 108.15 10.2299L105.279 7.09924C104.575 7.50381 104.286 8.25517 104.286 9.08358C104.286 10.5478 105.308 11.4725 106.657 11.4725C107.418 11.4725 108.093 11.1835 108.623 10.7211M106.348 6.6176C107.553 6.14559 107.832 5.4135 107.832 4.4406C107.832 3.58328 107.408 2.82229 106.483 2.82229C105.693 2.82229 105.134 3.39063 105.134 4.39243C105.134 5.39424 105.79 6.0011 106.194 6.47311L106.339 6.62723L106.348 6.6176Z" fill="#1D1D1B"/>
<path d="M111.793 13.3704H103.149V14.7382H111.793V13.3704Z" fill="#8B3C50"/>
</g>
<defs>
<clipPath id="clip0_1193_334">
<rect width="215" height="16" fill="white"/>
</clipPath>
</defs>
</svg>
