<svg width="26" height="34" viewBox="0 0 26 34" fill="none" xmlns="http://www.w3.org/2000/svg">
<path fill-rule="evenodd" clip-rule="evenodd" d="M11.3073 1.20696L3.32274 5.40459C2.84155 5.65757 2.59448 6.01731 2.55902 6.40262H2.55545V6.45635C2.55424 6.48569 2.55425 6.51514 2.55545 6.54469V27.3949C2.55409 27.4239 2.55419 27.4591 2.55545 27.502C2.56758 27.916 2.81247 28.3318 3.32274 28.6001L11.3073 32.7977C12.0898 33.2091 13.2804 33.2091 14.0629 32.7977L22.0474 28.6001C22.5598 28.3307 22.8211 27.9177 22.8311 27.502H22.8314V27.477V6.40262H22.8239C22.7775 6.0215 22.5187 5.65234 22.0474 5.40459L14.0629 1.20696C13.2804 0.795596 12.0898 0.795596 11.3073 1.20696ZM3.81222 27.4605L11.3073 31.3799C11.7587 31.62 12.2284 31.8538 12.6851 31.8553C13.1056 31.8567 13.5146 31.6571 13.9279 31.4553L14.0078 31.4164L21.5747 27.4267V18.1738L14.0629 22.1229C13.2804 22.5343 12.0898 22.5343 11.3073 22.1229L3.81222 18.1826V27.4605ZM3.81222 15.4217L10.9582 11.6649L3.81222 7.90816V15.4217ZM21.5747 7.89935V15.4305L14.4119 11.6649L21.5747 7.89935ZM13.4759 2.31311L21.4604 6.51074L21.4786 6.52057L21.4912 6.52771L21.4844 6.53162C21.4768 6.53592 21.4688 6.54028 21.4604 6.54469L13.4759 10.7423C13.0607 10.9606 12.3094 10.9606 11.8942 10.7423L3.90969 6.54469L3.89149 6.53486L3.87896 6.52771L3.88572 6.52381C3.89332 6.5195 3.90131 6.51514 3.90969 6.51074L11.8942 2.31311C12.3094 2.09481 13.0607 2.09481 13.4759 2.31311ZM13.4759 12.5876L21.4604 16.7852L21.4786 16.795L21.4912 16.8022L21.4844 16.8061L21.4678 16.8153L21.4604 16.8192L13.4759 21.0168C13.4262 21.0429 13.3717 21.0659 13.3135 21.0858V12.5185C13.3717 12.5384 13.4262 12.5614 13.4759 12.5876ZM12.0567 12.5185C11.9985 12.5384 11.9439 12.5614 11.8942 12.5876L3.90969 16.7852C3.90131 16.7896 3.89332 16.794 3.88572 16.7983L3.87896 16.8022L3.89149 16.8093L3.90969 16.8192L11.8942 21.0168C11.9439 21.0429 11.9985 21.0659 12.0567 21.0858V12.5185ZM22.7545 2.77342L22.104 3.84378L22.5576 4.1162L22.7053 4.20623C22.8305 4.28339 22.9334 4.34906 23.0268 4.41173L23.0511 4.42812C23.4767 4.71662 23.7097 4.95373 23.8651 5.26399C24.0525 5.63831 24.1469 6.16964 24.1469 6.97805H25.4037L25.4035 6.92182C25.3946 5.07582 24.9422 4.18842 23.7293 3.37449C23.6159 3.29835 23.4942 3.22088 23.3474 3.1307L23.2621 3.07856L22.7545 2.77342ZM3.29961 30.1776L2.64914 31.2479L2.14154 30.9428L2.05622 30.8906C1.90945 30.8005 1.7878 30.723 1.67433 30.6469C0.461416 29.8329 0.00906095 28.9455 0.000135141 27.0995L0 27.0433H1.25678C1.25678 27.8517 1.35117 28.383 1.53858 28.7574C1.69392 29.0676 1.927 29.3047 2.35258 29.5932L2.37688 29.6096C2.47027 29.6723 2.57316 29.7379 2.6984 29.8151L2.84609 29.9051L3.29961 30.1776Z" fill="white"/>
</svg>
