<svg width="24" height="24" viewBox="0 0 24 24" fill="none" xmlns="http://www.w3.org/2000/svg">
<g id="Social/linkedin">
<path id="Combined-Shape" fill-rule="evenodd" clip-rule="evenodd" d="M7.6058 9.20419H4.01278V19.9997H7.6058V9.20419ZM7.84211 5.86471C7.81879 4.80621 7.06186 4 5.83271 4C4.60356 4 3.79999 4.80621 3.79999 5.86471C3.79999 6.90128 4.57981 7.7307 5.78607 7.7307H5.80903C7.06186 7.7307 7.84211 6.90128 7.84211 5.86471ZM20.5635 13.8099C20.5635 10.494 18.791 8.9507 16.4266 8.9507C14.519 8.9507 13.6649 9.99852 13.188 10.7336V9.20448H9.59454C9.6419 10.2175 9.59454 20 9.59454 20H13.188V13.9709C13.188 13.6483 13.2113 13.3264 13.3063 13.0954C13.566 12.4508 14.1572 11.7835 15.1499 11.7835C16.4506 11.7835 16.9705 12.7734 16.9705 14.2241V19.9997H20.5634L20.5635 13.8099Z" fill="#8B3C50"/>
</g>
</svg>
