<svg width="109" height="167" viewBox="0 0 109 167" fill="none" xmlns="http://www.w3.org/2000/svg">
<path d="M22.9339 34.4859C22.9339 45.4509 28.3426 52.6926 36.3883 58.2582C43.3074 63.0446 52.2133 66.6158 61.3414 70.2761C62.7924 70.858 64.2492 71.4421 65.7044 72.0337C76.341 76.358 86.917 81.0878 94.8379 88.2646C102.739 95.4237 108.007 105.027 108.007 119.142C108.007 147.818 81.8148 166.625 51.6319 166.625C30.1479 166.625 11.8081 160.259 1.72984 151.74L0.286912 112.278H2.09363C7.72422 142.776 27.0094 163.856 52.1544 163.856C63.5228 163.856 72.6875 160.234 79.0127 154.162C85.338 148.09 88.7952 139.594 88.7954 129.901C88.8218 117.027 83.4524 108.59 75.4016 102.347C67.6421 96.3311 57.3825 92.3479 47.106 88.3581C46.7569 88.2225 46.4077 88.087 46.0587 87.9513C35.4068 83.8122 24.8224 79.5902 16.8934 73.0281C8.98939 66.4866 3.72188 57.6165 3.72188 44.1379C3.72188 19.966 24.7131 0.375 56.753 0.375C73.4138 0.375 87.7131 5.82341 100.378 13.5819V46.7791H98.8718C93.9755 19.804 77.608 2.84234 55.8124 2.84234C44.9065 2.84234 36.6771 6.51964 31.1754 12.3352C25.6777 18.1464 22.9339 26.0609 22.9339 34.4859Z" stroke="#E3CFD4" stroke-width="0.75"/>
</svg>
