<svg width="97" height="99" viewBox="0 0 97 99" fill="none" xmlns="http://www.w3.org/2000/svg">
<g id="Vector">
<mask id="path-1-inside-1_508_1256" fill="white">
<path d="M35.3615 41.9716C48.4256 37.0451 51.561 29.4039 51.561 19.2492C51.561 10.3009 46.9624 2.35814 36.9292 2.35814C28.3591 2.35814 22.2973 8.29011 22.2973 18.7465C22.2973 29.2028 29.5087 35.5369 33.7938 40.4635L35.3615 42.0722V41.9716ZM60.131 84.8024C58.5633 83.2943 56.9957 81.5851 55.1144 79.6748L23.865 46.9987C16.2356 51.2215 12.9957 59.0637 12.9957 67.7103C12.9957 82.9927 24.074 92.6447 38.8104 92.6447C47.0669 92.6447 54.4873 89.6284 60.2355 84.8024M62.1168 86.7127C54.9054 93.7507 45.1857 98.275 32.8531 98.275C16.3401 98.275 0.349609 88.9247 0.349609 72.4358C0.349609 59.4659 10.4874 51.1209 23.0289 46.1944L21.7748 44.8873C17.5943 40.3629 12.3686 33.6266 12.3686 24.1757C12.3686 11.608 23.3425 0.648926 38.2878 0.648926C53.2332 0.648926 62.6393 9.59715 62.6393 19.7519C62.6393 32.2191 51.2474 38.151 36.6156 43.1781L68.1785 75.9548C71.941 69.7212 74.1358 62.2811 74.1358 54.5393C74.1358 46.7976 67.7605 45.2895 58.6679 45.189V43.6808H92.2165V45.189C83.2284 45.2895 78.9434 46.9987 77.6892 54.9415C76.4351 63.0854 73.7177 70.8271 69.8507 77.4629L72.15 79.8759C82.7058 90.8349 89.9172 95.0577 96.8151 95.7615V97.0685H74.8674C71.3139 95.2588 68.4921 93.0469 62.4303 86.9138"/>
</mask>
<path d="M35.3615 41.9716L35.0968 41.2699L34.6115 41.4529V41.9716H35.3615ZM33.7938 40.4635L33.2279 40.9557L33.2418 40.9717L33.2566 40.9869L33.7938 40.4635ZM35.3615 42.0722L34.8243 42.5956L36.1115 43.9164V42.0722H35.3615ZM55.1144 79.6748L54.5723 80.1932L54.58 80.201L55.1144 79.6748ZM23.865 46.9987L24.4071 46.4803L24.0076 46.0626L23.5018 46.3425L23.865 46.9987ZM23.0289 46.1944L23.3031 46.8924L24.3453 46.4831L23.5701 45.6751L23.0289 46.1944ZM21.7748 44.8873L21.2238 45.3964L21.2336 45.4066L21.7748 44.8873ZM36.6156 43.1781L36.3719 42.4688L35.2594 42.851L36.0754 43.6984L36.6156 43.1781ZM68.1785 75.9548L67.6383 76.475L68.3159 77.1786L68.8206 76.3423L68.1785 75.9548ZM58.6679 45.189H57.9179V45.9307L58.6596 45.9389L58.6679 45.189ZM58.6679 43.6808V42.9308H57.9179V43.6808H58.6679ZM92.2165 43.6808H92.9665V42.9308H92.2165V43.6808ZM92.2165 45.189L92.2249 45.9389L92.9665 45.9306V45.189H92.2165ZM77.6892 54.9415L76.9484 54.8245L76.948 54.8274L77.6892 54.9415ZM69.8507 77.4629L69.2027 77.0853L68.919 77.5722L69.3078 77.9803L69.8507 77.4629ZM72.15 79.8759L71.607 80.3933L71.6098 80.3962L72.15 79.8759ZM96.8151 95.7615H97.5651V95.0841L96.8912 95.0154L96.8151 95.7615ZM96.8151 97.0685V97.8185H97.5651V97.0685H96.8151ZM74.8674 97.0685L74.527 97.7369L74.6874 97.8185H74.8674V97.0685ZM35.6261 42.6734C42.2593 40.172 46.4637 36.9456 48.9929 32.9738C51.5178 29.0087 52.311 24.3966 52.311 19.2492H50.811C50.811 24.2564 50.0365 28.5423 47.7276 32.1681C45.423 35.7872 41.5277 38.8447 35.0968 41.2699L35.6261 42.6734ZM52.311 19.2492C52.311 14.6583 51.1327 10.2589 48.6005 6.98887C46.0491 3.69396 42.1685 1.60814 36.9292 1.60814V3.10814C41.7231 3.10814 45.1584 4.99372 47.4145 7.90726C49.6899 10.8457 50.811 14.8918 50.811 19.2492H52.311ZM36.9292 1.60814C32.4648 1.60814 28.5969 3.15782 25.8495 6.12126C23.1063 9.08004 21.5473 13.3746 21.5473 18.7465H23.0473C23.0473 13.662 24.5192 9.76237 26.9495 7.14108C29.3754 4.52444 32.8235 3.10814 36.9292 3.10814V1.60814ZM21.5473 18.7465C21.5473 29.552 29.0335 36.1333 33.2279 40.9557L34.3597 39.9713C29.984 34.9406 23.0473 28.8536 23.0473 18.7465H21.5473ZM33.2566 40.9869L34.8243 42.5956L35.8986 41.5487L34.3309 39.94L33.2566 40.9869ZM36.1115 42.0722V41.9716H34.6115V42.0722H36.1115ZM60.651 84.2619C59.0897 82.76 57.5584 81.0876 55.6488 79.1486L54.58 80.201C56.4329 82.0826 58.037 83.8286 59.6111 85.3429L60.651 84.2619ZM55.6564 79.1564L24.4071 46.4803L23.323 47.5171L54.5724 80.1932L55.6564 79.1564ZM23.5018 46.3425C15.5636 50.7362 12.2457 58.8818 12.2457 67.7103H13.7457C13.7457 59.2457 16.9076 51.7068 24.2282 47.6549L23.5018 46.3425ZM12.2457 67.7103C12.2457 75.5421 15.0893 81.9794 19.864 86.4556C24.6331 90.9265 31.2786 93.3947 38.8104 93.3947V91.8947C31.6059 91.8947 25.344 89.5369 20.8899 85.3612C16.4412 81.1908 13.7457 75.1609 13.7457 67.7103H12.2457ZM38.8104 93.3947C47.2547 93.3947 54.8434 90.3088 60.7178 85.3768L59.7533 84.228C54.1312 88.9481 46.8792 91.8947 38.8104 91.8947V93.3947ZM61.593 86.176C54.518 93.0808 44.9848 97.525 32.8531 97.525V99.025C45.3865 99.025 55.2928 94.4205 62.6406 87.2495L61.593 86.176ZM32.8531 97.525C24.7272 97.525 16.7624 95.2225 10.8495 90.9317C4.95291 86.6529 1.09961 80.406 1.09961 72.4358H-0.400391C-0.400391 80.9544 3.74155 87.6272 9.9685 92.1458C16.179 96.6524 24.466 99.025 32.8531 99.025V97.525ZM1.09961 72.4358C1.09961 59.9452 10.8468 51.7855 23.3031 46.8924L22.7547 45.4963C10.1279 50.4563 -0.400391 58.9866 -0.400391 72.4358H1.09961ZM23.5701 45.6751L22.3159 44.3681L21.2336 45.4066L22.4877 46.7136L23.5701 45.6751ZM22.3256 44.3783C18.1755 39.8869 13.1186 33.3315 13.1186 24.1757H11.6186C11.6186 33.9218 17.013 40.839 21.2239 45.3963L22.3256 44.3783ZM13.1186 24.1757C13.1186 12.0691 23.7082 1.39893 38.2878 1.39893V-0.101074C22.9767 -0.101074 11.6186 11.1469 11.6186 24.1757H13.1186ZM38.2878 1.39893C52.955 1.39893 61.8893 10.1354 61.8893 19.7519H63.3893C63.3893 9.05891 53.5114 -0.101074 38.2878 -0.101074V1.39893ZM61.8893 19.7519C61.8893 25.7077 59.1881 30.1053 54.6514 33.665C50.0806 37.2515 43.6785 39.9585 36.3719 42.4688L36.8593 43.8874C44.1845 41.3707 50.7943 38.5981 55.5774 34.8451C60.3946 31.0652 63.3893 26.2632 63.3893 19.7519H61.8893ZM36.0754 43.6984L67.6383 76.475L68.7188 75.4345L37.1559 42.6579L36.0754 43.6984ZM68.8206 76.3423C72.6516 69.9952 74.8858 62.4216 74.8858 54.5393H73.3858C73.3858 62.1405 71.2304 69.4471 67.5364 75.5672L68.8206 76.3423ZM74.8858 54.5393C74.8858 52.5003 74.4653 50.8135 73.6405 49.4403C72.8141 48.0644 71.6142 47.0573 70.1454 46.3271C67.2475 44.8865 63.2253 44.4893 58.6762 44.439L58.6596 45.9389C63.203 45.9891 66.9148 46.3963 69.4777 47.6703C70.7393 48.2975 71.7015 49.1252 72.3546 50.2126C73.0093 51.3026 73.3858 52.7075 73.3858 54.5393H74.8858ZM59.4179 45.189V43.6808H57.9179V45.189H59.4179ZM58.6679 44.4308H92.2165V42.9308H58.6679V44.4308ZM91.4665 43.6808V45.189H92.9665V43.6808H91.4665ZM92.2081 44.439C87.7072 44.4893 84.2035 44.9357 81.6624 46.4839C79.0555 48.0722 77.5953 50.7278 76.9484 54.8245L78.43 55.0585C79.0373 51.2124 80.3466 49.042 82.4429 47.7649C84.6048 46.4477 87.7377 45.9891 92.2249 45.9389L92.2081 44.439ZM76.948 54.8274C75.7074 62.883 73.0201 70.5347 69.2027 77.0853L70.4987 77.8405C74.4154 71.1195 77.1627 63.2877 78.4305 55.0557L76.948 54.8274ZM69.3078 77.9803L71.6071 80.3933L72.693 79.3585L70.3937 76.9455L69.3078 77.9803ZM71.6098 80.3962C82.1956 91.3863 89.5658 95.7757 96.739 96.5076L96.8912 95.0154C90.2686 94.3397 83.2161 90.2836 72.6902 79.3556L71.6098 80.3962ZM96.0651 95.7615V97.0685H97.5651V95.7615H96.0651ZM96.8151 96.3185H74.8674V97.8185H96.8151V96.3185ZM75.2077 96.4002C71.7639 94.6463 69.0101 92.5041 62.9637 86.3866L61.8969 87.441C67.974 93.5896 70.864 95.8713 74.527 97.7369L75.2077 96.4002Z" fill="#E3CFD4" mask="url(#path-1-inside-1_508_1256)"/>
</g>
</svg>
