<svg width="122" height="123" viewBox="0 0 122 123" fill="none" xmlns="http://www.w3.org/2000/svg">
<g id="Vector">
<mask id="path-1-inside-1_278_1023" fill="white">
<path d="M44.0426 52.3175C60.4146 46.152 64.3439 36.589 64.3439 23.8804C64.3439 12.6818 58.581 2.74137 46.0072 2.74137C35.2672 2.74137 27.6705 10.1652 27.6705 23.2513C27.6705 36.3374 36.7079 44.2645 42.0779 50.4301L44.0426 52.4433V52.3175ZM75.084 105.92C73.1193 104.033 71.1547 101.894 68.7971 99.5029L29.6352 58.6089C20.0739 63.8937 16.0137 73.7082 16.0137 84.5294C16.0137 103.655 29.8971 115.735 48.3648 115.735C58.7119 115.735 68.0113 111.96 75.215 105.92M77.5725 108.311C68.5352 117.119 56.3544 122.781 40.8992 122.781C20.2049 122.781 0.165527 111.079 0.165527 90.4433C0.165527 74.2116 12.8702 63.7679 28.5874 57.6023L27.0157 55.9665C21.7766 50.3043 15.2278 41.8738 15.2278 30.046C15.2278 14.3175 28.9803 0.602295 47.7099 0.602295C66.4395 0.602295 78.2274 11.801 78.2274 24.5096C78.2274 40.1122 63.951 47.5361 45.6143 53.8275L85.1692 94.8473C89.8843 87.046 92.6348 77.7347 92.6348 68.046C92.6348 58.3573 84.6453 56.4698 73.2503 56.344V54.4566H115.294V56.344C104.03 56.4698 98.6597 58.6089 97.088 68.5493C95.5163 78.7414 92.1109 88.4301 87.2648 96.7347L90.1463 99.7546C103.375 113.47 112.412 118.755 121.057 119.635V121.271H93.5516C89.0984 119.006 85.5621 116.238 77.9655 108.563"/>
</mask>
<path d="M44.0426 52.3175L43.6197 51.1945L42.8426 51.4872V52.3175H44.0426ZM42.0779 50.4301L41.173 51.2182L41.1954 51.2439L41.2191 51.2682L42.0779 50.4301ZM44.0426 52.4433L43.1838 53.2814L45.2426 55.3912V52.4433H44.0426ZM68.7971 99.5029L67.9304 100.333L67.9365 100.339L67.9427 100.346L68.7971 99.5029ZM29.6352 58.6089L30.5019 57.7789L29.8631 57.1119L29.0547 57.5587L29.6352 58.6089ZM28.5874 57.6023L29.0256 58.7194L30.6955 58.0643L29.4527 56.7709L28.5874 57.6023ZM27.0157 55.9665L26.1349 56.7815L26.1425 56.7898L26.1504 56.7979L27.0157 55.9665ZM45.6143 53.8275L45.2249 52.6924L43.4425 53.304L44.7505 54.6604L45.6143 53.8275ZM85.1692 94.8473L84.3054 95.6803L85.3888 96.8038L86.1962 95.468L85.1692 94.8473ZM73.2503 56.344H72.0503V57.5308L73.2371 57.5439L73.2503 56.344ZM73.2503 54.4566V53.2566H72.0503V54.4566H73.2503ZM115.294 54.4566H116.494V53.2566H115.294V54.4566ZM115.294 56.344L115.307 57.5439L116.494 57.5307V56.344H115.294ZM97.088 68.5493L95.9027 68.3619L95.902 68.3664L97.088 68.5493ZM87.2648 96.7347L86.2283 96.1299L85.7732 96.9098L86.3966 97.5631L87.2648 96.7347ZM90.1463 99.7546L89.2781 100.583L89.2825 100.588L90.1463 99.7546ZM121.057 119.635H122.257V118.551L121.178 118.442L121.057 119.635ZM121.057 121.271V122.471H122.257V121.271H121.057ZM93.5516 121.271L93.0076 122.341L93.264 122.471H93.5516V121.271ZM44.4655 53.4405C52.8131 50.2969 58.1359 46.2299 61.3446 41.1978C64.5466 36.1762 65.5439 30.3472 65.5439 23.8804H63.1439C63.1439 30.1223 62.1766 35.4291 59.321 39.9074C56.472 44.3754 51.6441 48.1726 43.6197 51.1945L44.4655 53.4405ZM65.5439 23.8804C65.5439 18.0939 64.0572 12.5263 60.839 8.37607C57.5901 4.18614 52.6498 1.54137 46.0072 1.54137V3.94137C51.9385 3.94137 56.1665 6.2668 58.9424 9.84673C61.7491 13.4663 63.1439 18.4683 63.1439 23.8804H65.5439ZM46.0072 1.54137C40.3508 1.54137 35.431 3.50365 31.9319 7.2726C28.4397 11.0343 26.4705 16.478 26.4705 23.2513H28.8705C28.8705 16.9386 30.6998 12.1273 33.6908 8.90551C36.6751 5.691 40.9236 3.94137 46.0072 3.94137V1.54137ZM26.4705 23.2513C26.4705 36.8968 35.9484 45.2196 41.173 51.2182L42.9828 49.642C37.4674 43.3095 28.8705 35.778 28.8705 23.2513H26.4705ZM41.2191 51.2682L43.1838 53.2814L44.9014 51.6052L42.9368 49.592L41.2191 51.2682ZM45.2426 52.4433V52.3175H42.8426V52.4433H45.2426ZM75.9153 105.055C73.961 103.177 72.0545 101.097 69.6516 98.6604L67.9427 100.346C70.2549 102.69 72.2777 104.888 74.2526 106.786L75.9153 105.055ZM69.6638 98.673L30.5019 57.7789L28.7685 59.4389L67.9304 100.333L69.6638 98.673ZM29.0547 57.5587C18.9993 63.1165 14.8137 73.4163 14.8137 84.5294H17.2137C17.2137 74.0002 21.1485 64.6708 30.2157 59.6592L29.0547 57.5587ZM14.8137 84.5294C14.8137 94.3979 18.4034 102.525 24.4437 108.18C30.4751 113.827 38.8696 116.935 48.3648 116.935V114.535C39.3923 114.535 31.6113 111.603 26.084 106.428C20.5657 101.262 17.2137 93.7868 17.2137 84.5294H14.8137ZM48.3648 116.935C59.0119 116.935 68.5804 113.049 75.9859 106.84L74.444 105.001C67.4422 110.871 58.412 114.535 48.3648 114.535V116.935ZM76.735 107.452C67.916 116.047 56.0335 121.581 40.8992 121.581V123.981C56.6752 123.981 69.1544 118.191 78.4101 109.17L76.735 107.452ZM40.8992 121.581C30.7606 121.581 20.8348 118.711 13.4761 113.379C6.14377 108.065 1.36553 100.322 1.36553 90.4433H-1.03447C-1.03447 101.201 4.20697 109.626 12.0679 115.322C19.9025 121 30.3435 123.981 40.8992 123.981V121.581ZM1.36553 90.4433C1.36553 74.9794 13.444 64.8318 29.0256 58.7194L28.1491 56.4852C12.2965 62.7039 -1.03447 73.4437 -1.03447 90.4433H1.36553ZM29.4527 56.7709L27.881 55.1351L26.1504 56.7979L27.7221 58.4337L29.4527 56.7709ZM27.8965 55.1516C22.706 49.5418 16.4278 41.401 16.4278 30.046H14.0278C14.0278 42.3466 20.8472 51.0668 26.1349 56.7815L27.8965 55.1516ZM16.4278 30.046C16.4278 15.0567 29.5639 1.80229 47.7099 1.80229V-0.597705C28.3967 -0.597705 14.0278 13.5783 14.0278 30.046H16.4278ZM47.7099 1.80229C65.9961 1.80229 77.0274 12.6635 77.0274 24.5096H79.4274C79.4274 10.9384 66.883 -0.597705 47.7099 -0.597705V1.80229ZM77.0274 24.5096C77.0274 31.8658 73.6937 37.2988 68.057 41.7157C62.3656 46.1754 54.3784 49.5518 45.2249 52.6924L46.0038 54.9625C55.1869 51.8117 63.5063 48.3305 69.5373 43.6048C75.6229 38.8362 79.4274 32.756 79.4274 24.5096H77.0274ZM44.7505 54.6604L84.3054 95.6803L86.033 94.0144L46.4781 52.9945L44.7505 54.6604ZM86.1962 95.468C91.0211 87.485 93.8348 77.9599 93.8348 68.046H91.4348C91.4348 77.5095 88.7475 86.607 84.1422 94.2266L86.1962 95.468ZM93.8348 68.046C93.8348 65.4578 93.3001 63.2974 92.2367 61.5293C91.1708 59.7571 89.6257 58.4656 87.7493 57.5341C84.0597 55.7025 78.9656 55.207 73.2636 55.1441L73.2371 57.5439C78.93 57.6068 83.5281 58.118 86.6821 59.6837C88.2274 60.4509 89.3919 61.4558 90.1801 62.7663C90.9708 64.081 91.4348 65.7899 91.4348 68.046H93.8348ZM74.4503 56.344V54.4566H72.0503V56.344H74.4503ZM73.2503 55.6566H115.294V53.2566H73.2503V55.6566ZM114.094 54.4566V56.344H116.494V54.4566H114.094ZM115.28 55.1441C109.637 55.2071 105.183 55.7636 101.933 57.741C98.5769 59.7827 96.7204 63.1907 95.9027 68.3619L98.2733 68.7367C99.0274 63.9675 100.642 61.3358 103.18 59.7913C105.824 58.1827 109.686 57.6067 115.307 57.5439L115.28 55.1441ZM95.902 68.3664C94.3521 78.4172 90.9949 87.9617 86.2283 96.1299L88.3012 97.3395C93.2269 88.8985 96.6805 79.0655 98.274 68.7322L95.902 68.3664ZM86.3966 97.5631L89.2781 100.583L91.0144 98.9262L88.133 95.9063L86.3966 97.5631ZM89.2825 100.588C102.559 114.353 111.851 119.904 120.935 120.829L121.178 118.442C112.974 117.606 104.19 112.587 91.01 98.9215L89.2825 100.588ZM119.857 119.635V121.271H122.257V119.635H119.857ZM121.057 120.071H93.5516V122.471H121.057V120.071ZM94.0956 120.202C89.8177 118.026 86.3904 115.369 78.8184 107.718L77.1126 109.407C84.7338 117.107 88.3792 119.987 93.0076 122.341L94.0956 120.202Z" fill="#8B3C50" mask="url(#path-1-inside-1_278_1023)"/>
</g>
</svg>
