<svg width="137" height="209" viewBox="0 0 137 209" fill="none" xmlns="http://www.w3.org/2000/svg">
<g id="Vector">
<mask id="path-1-inside-1_278_1021" fill="white">
<path d="M30.0472 43.1588C30.0472 97.2647 136.662 77.8873 136.662 149.106C136.662 185.344 103.525 209 65.5418 209C38.4297 209 15.2469 200.947 2.54216 190.126L0.708496 140.046H3.72095C10.6627 178.298 34.7623 204.596 66.0656 204.596C94.3565 204.596 111.514 186.602 111.514 162.569C111.514 98.6488 4.89973 123.185 4.89973 55.1124C4.89973 24.4104 31.357 -0.125977 71.8286 -0.125977C92.9158 -0.125977 110.991 6.79455 126.97 16.6091V58.8873H124.219C118.194 25.0396 97.7619 3.90051 70.6498 3.90051C43.5378 3.90051 29.9162 22.1455 29.9162 43.033"/>
</mask>
<path d="M2.54216 190.126L1.34296 190.17L1.36227 190.697L1.76405 191.039L2.54216 190.126ZM0.708496 140.046V138.846H-0.536246L-0.4907 140.09L0.708496 140.046ZM3.72095 140.046L4.90166 139.832L4.72277 138.846H3.72095V140.046ZM126.97 16.6091H128.17V15.9379L127.598 15.5866L126.97 16.6091ZM126.97 58.8873V60.0873H128.17V58.8873H126.97ZM124.219 58.8873L123.038 59.0976L123.214 60.0873H124.219V58.8873ZM28.8472 43.1588C28.8472 57.1877 35.8048 66.4518 46.0237 73.5112C56.1579 80.5121 69.6559 85.4486 82.9031 90.8269C96.2376 96.2407 109.378 102.12 119.198 111.005C128.955 119.833 135.462 131.658 135.462 149.106H137.862C137.862 130.944 131.042 118.484 120.808 109.225C110.638 100.022 97.1251 94.0107 83.8059 88.6032C70.3995 83.1603 57.2438 78.3452 47.3878 71.5365C37.6164 64.7863 31.2472 56.1828 31.2472 43.1588H28.8472ZM135.462 149.106C135.462 184.447 103.124 207.8 65.5418 207.8V210.2C103.926 210.2 137.862 186.241 137.862 149.106H135.462ZM65.5418 207.8C38.624 207.8 15.7475 199.797 3.32026 189.212L1.76405 191.039C14.7462 202.097 38.2354 210.2 65.5418 210.2V207.8ZM3.74135 190.082L1.90769 140.002L-0.4907 140.09L1.34296 190.17L3.74135 190.082ZM0.708496 141.246H3.72095V138.846H0.708496V141.246ZM2.54023 140.26C9.54008 178.832 33.9603 205.796 66.0656 205.796V203.396C35.5643 203.396 11.7853 177.763 4.90166 139.832L2.54023 140.26ZM66.0656 205.796C80.4697 205.796 92.1461 201.211 100.23 193.461C108.314 185.71 112.714 174.88 112.714 162.569H110.314C110.314 174.292 106.136 184.475 98.5687 191.729C91.0005 198.984 79.9525 203.396 66.0656 203.396V205.796ZM112.714 162.569C112.714 146.173 105.842 135.388 95.5913 127.437C85.4289 119.555 71.9154 114.441 58.642 109.28C45.2795 104.083 32.1431 98.8336 22.3233 90.7075C12.5835 82.6475 6.09973 71.7477 6.09973 55.1124H3.69973C3.69973 72.5136 10.5428 84.074 20.7932 92.5565C30.9637 100.973 44.481 106.348 57.7722 111.516C71.1524 116.72 84.2926 121.711 94.1205 129.334C103.86 136.888 110.314 147.005 110.314 162.569H112.714ZM6.09973 55.1124C6.09973 25.2435 31.8354 1.07402 71.8286 1.07402V-1.32598C30.8785 -1.32598 3.69973 23.5773 3.69973 55.1124H6.09973ZM71.8286 1.07402C92.6365 1.07402 110.495 7.89872 126.342 17.6316L127.598 15.5866C111.486 5.69038 93.1952 -1.32598 71.8286 -1.32598V1.07402ZM125.77 16.6091V58.8873H128.17V16.6091H125.77ZM126.97 57.6873H124.219V60.0873H126.97V57.6873ZM125.401 58.677C119.313 24.4792 98.5435 2.70051 70.6498 2.70051V5.10051C96.9803 5.10051 117.075 25.6 123.038 59.0976L125.401 58.677ZM70.6498 2.70051C56.8101 2.70051 46.2955 7.36593 39.2448 14.8087C32.2068 22.238 28.7162 32.3329 28.7162 43.033H31.1162C31.1162 32.8456 34.4363 23.3743 40.9872 16.4592C47.5252 9.55761 57.3775 5.10051 70.6498 5.10051V2.70051Z" fill="#8B3C50" mask="url(#path-1-inside-1_278_1021)"/>
</g>
</svg>
