<svg width="92" height="21" viewBox="0 0 92 21" fill="none" xmlns="http://www.w3.org/2000/svg">
<path fill-rule="evenodd" clip-rule="evenodd" d="M6.17091 8.85278V20.6195H3.37905V8.85278H0.697754V6.69832H3.37905V4.93055C3.37905 3.38376 3.77065 2.20525 4.55384 1.39502C5.33704 0.5848 6.43812 0.179688 7.85709 0.179688C8.59421 0.179688 9.26684 0.271759 9.87497 0.455901V2.74847C9.37741 2.60116 8.90749 2.5275 8.46522 2.5275C6.93568 2.5275 6.17091 3.40217 6.17091 5.15152V6.69832H9.43269V8.85278H6.17091ZM20.3099 20.1499C19.5083 20.5918 18.5731 20.8128 17.5042 20.8128C16.2695 20.8128 15.1869 20.5182 14.2563 19.9289C13.3256 19.3397 12.6023 18.5064 12.0863 17.4292C11.5704 16.352 11.3124 15.0952 11.3124 13.6589C11.3124 12.2226 11.575 10.952 12.1002 9.84715C12.6254 8.74229 13.3579 7.88603 14.2977 7.27836C15.2376 6.67069 16.3064 6.36686 17.5042 6.36686C18.5731 6.36686 19.5037 6.59243 20.2961 7.04358C21.0885 7.49473 21.6966 8.13462 22.1205 8.96326V6.69832H24.8847V20.6195H22.1205V18.244C21.7151 19.0727 21.1115 19.708 20.3099 20.1499ZM18.1676 18.6031C16.8961 18.6031 15.9056 18.1704 15.1961 17.3049C14.4866 16.4394 14.1319 15.2241 14.1319 13.6589C14.1319 12.0753 14.4866 10.8369 15.1961 9.94382C15.9056 9.05073 16.8869 8.60419 18.14 8.60419C19.4115 8.60419 20.3928 9.03692 21.0839 9.90239C21.7749 10.7679 22.1205 12.0016 22.1205 13.6036C22.1205 15.1873 21.7749 16.4164 21.0839 17.2911C20.3928 18.1658 19.4207 18.6031 18.1676 18.6031ZM31.74 12.6921V20.6195H28.9757V10.6205C28.9757 9.16582 28.902 7.85841 28.7546 6.69832H31.353L31.6017 9.10137C32.044 8.21749 32.6844 7.54077 33.5229 7.0712C34.3614 6.60164 35.315 6.36686 36.3839 6.36686C39.7193 6.36686 41.3871 8.2267 41.3871 11.9464V20.6195H38.5952V12.1121C38.5952 10.8968 38.3603 10.0129 37.8904 9.46045C37.4204 8.90802 36.6695 8.63181 35.6375 8.63181C34.4581 8.63181 33.5137 9.00009 32.8042 9.73666C32.0947 10.4732 31.74 11.4584 31.74 12.6921ZM50.7302 20.8128C51.5041 20.8128 52.1952 20.7115 52.8033 20.509V18.244C52.3058 18.3913 51.8174 18.465 51.3383 18.465C50.6012 18.465 50.0253 18.267 49.6106 17.8711C49.196 17.4752 48.9887 16.7985 48.9887 15.841V8.85278H52.831V6.69832H48.9887V2.25129L46.1968 3.21803V6.69832H43.4879V8.85278H46.1968V16.0619C46.1968 17.6087 46.593 18.7872 47.3855 19.5975C48.1779 20.4077 49.2928 20.8128 50.7302 20.8128ZM64.9659 19.9289C63.9339 20.5182 62.7453 20.8128 61.4001 20.8128C60.0364 20.8128 58.8385 20.5182 57.8066 19.9289C56.7746 19.3397 55.9776 18.5018 55.4155 17.4154C54.8535 16.3289 54.5724 15.0584 54.5724 13.6036C54.5724 12.1489 54.8535 10.8737 55.4155 9.77809C55.9776 8.68245 56.7746 7.84 57.8066 7.25074C58.8385 6.66149 60.0364 6.36686 61.4001 6.36686C62.7453 6.36686 63.9339 6.66149 64.9659 7.25074C65.9979 7.84 66.7949 8.68245 67.3569 9.77809C67.919 10.8737 68.2 12.1489 68.2 13.6036C68.2 15.0584 67.919 16.3289 67.3569 17.4154C66.7949 18.5018 65.9979 19.3397 64.9659 19.9289ZM61.3724 18.6031C60.1009 18.6031 59.1196 18.1796 58.4285 17.3325C57.7375 16.4855 57.3919 15.2425 57.3919 13.6036C57.3919 12.0016 57.7421 10.7679 58.4423 9.90239C59.1426 9.03692 60.1285 8.60419 61.4001 8.60419C62.6532 8.60419 63.6253 9.03692 64.3163 9.90239C65.0074 10.7679 65.3529 12.0016 65.3529 13.6036C65.3529 15.2425 65.012 16.4855 64.3301 17.3325C63.6483 18.1796 62.6624 18.6031 61.3724 18.6031ZM74.226 12.7474V20.6195H71.4618V10.6205C71.4618 9.16582 71.3881 7.85841 71.2407 6.69832H73.8391L74.0878 9.01851C74.4932 8.17145 75.0737 7.51775 75.8293 7.05739C76.5848 6.59704 77.4694 6.36686 78.4829 6.36686C80.639 6.36686 82.0488 7.25995 82.7122 9.04613C83.136 8.21749 83.758 7.56378 84.578 7.08501C85.3981 6.60625 86.3241 6.36686 87.3561 6.36686C90.452 6.36686 92 8.2267 92 11.9464V20.6195H89.2081V12.0845C89.2081 10.8875 89.0008 10.0129 88.5862 9.46045C88.1715 8.90802 87.5035 8.63181 86.5821 8.63181C85.5133 8.63181 84.6702 9.00009 84.0528 9.73666C83.4355 10.4732 83.1268 11.4768 83.1268 12.7474V20.6195H80.335V12.0845C80.335 10.8875 80.1277 10.0129 79.713 9.46045C79.2984 8.90802 78.6304 8.63181 77.709 8.63181C76.6401 8.63181 75.7924 9.00009 75.1659 9.73666C74.5393 10.4732 74.226 11.4768 74.226 12.7474Z" fill="white"/>
</svg>
